<svg width="24" height="24" viewBox="0 0 24 24" fill="none" xmlns="http://www.w3.org/2000/svg">
<mask id="path-1-inside-1_47_946" fill="white">
<path d="M7 9V7H21V9H7ZM7 13V11H21V13H7ZM7 17V15H21V17H7ZM4 9C3.71667 9 3.47917 8.90417 3.2875 8.7125C3.09583 8.52083 3 8.28333 3 8C3 7.71667 3.09583 7.47917 3.2875 7.2875C3.47917 7.09583 3.71667 7 4 7C4.28333 7 4.52083 7.09583 4.7125 7.2875C4.90417 7.47917 5 7.71667 5 8C5 8.28333 4.90417 8.52083 4.7125 8.7125C4.52083 8.90417 4.28333 9 4 9ZM4 13C3.71667 13 3.47917 12.9042 3.2875 12.7125C3.09583 12.5208 3 12.2833 3 12C3 11.7167 3.09583 11.4792 3.2875 11.2875C3.47917 11.0958 3.71667 11 4 11C4.28333 11 4.52083 11.0958 4.7125 11.2875C4.90417 11.4792 5 11.7167 5 12C5 12.2833 4.90417 12.5208 4.7125 12.7125C4.52083 12.9042 4.28333 13 4 13ZM4 17C3.71667 17 3.47917 16.9042 3.2875 16.7125C3.09583 16.5208 3 16.2833 3 16C3 15.7167 3.09583 15.4792 3.2875 15.2875C3.47917 15.0958 3.71667 15 4 15C4.28333 15 4.52083 15.0958 4.7125 15.2875C4.90417 15.4792 5 15.7167 5 16C5 16.2833 4.90417 16.5208 4.7125 16.7125C4.52083 16.9042 4.28333 17 4 17Z"/>
</mask>
<path d="M7 9V7H21V9H7ZM7 13V11H21V13H7ZM7 17V15H21V17H7ZM4 9C3.71667 9 3.47917 8.90417 3.2875 8.7125C3.09583 8.52083 3 8.28333 3 8C3 7.71667 3.09583 7.47917 3.2875 7.2875C3.47917 7.09583 3.71667 7 4 7C4.28333 7 4.52083 7.09583 4.7125 7.2875C4.90417 7.47917 5 7.71667 5 8C5 8.28333 4.90417 8.52083 4.7125 8.7125C4.52083 8.90417 4.28333 9 4 9ZM4 13C3.71667 13 3.47917 12.9042 3.2875 12.7125C3.09583 12.5208 3 12.2833 3 12C3 11.7167 3.09583 11.4792 3.2875 11.2875C3.47917 11.0958 3.71667 11 4 11C4.28333 11 4.52083 11.0958 4.7125 11.2875C4.90417 11.4792 5 11.7167 5 12C5 12.2833 4.90417 12.5208 4.7125 12.7125C4.52083 12.9042 4.28333 13 4 13ZM4 17C3.71667 17 3.47917 16.9042 3.2875 16.7125C3.09583 16.5208 3 16.2833 3 16C3 15.7167 3.09583 15.4792 3.2875 15.2875C3.47917 15.0958 3.71667 15 4 15C4.28333 15 4.52083 15.0958 4.7125 15.2875C4.90417 15.4792 5 15.7167 5 16C5 16.2833 4.90417 16.5208 4.7125 16.7125C4.52083 16.9042 4.28333 17 4 17Z" fill="#49454F"/>
<path d="M7 9H5V11H7V9ZM7 7V5H5V7H7ZM21 7H23V5H21V7ZM21 9V11H23V9H21ZM7 13H5V15H7V13ZM7 11V9H5V11H7ZM21 11H23V9H21V11ZM21 13V15H23V13H21ZM7 17H5V19H7V17ZM7 15V13H5V15H7ZM21 15H23V13H21V15ZM21 17V19H23V17H21ZM9 9V7H5V9H9ZM7 9H21V5H7V9ZM19 7V9H23V7H19ZM21 7H7V11H21V7ZM9 13V11H5V13H9ZM7 13H21V9H7V13ZM19 11V13H23V11H19ZM21 11H7V15H21V11ZM9 17V15H5V17H9ZM7 17H21V13H7V17ZM19 15V17H23V15H19ZM21 15H7V19H21V15ZM4 7C4.08751 7 4.21461 7.01566 4.35776 7.07342C4.50267 7.1319 4.61874 7.21531 4.70171 7.29829L1.87329 10.1267C2.45854 10.712 3.213 11 4 11V7ZM4.70171 7.29829C4.78469 7.38126 4.8681 7.49733 4.92658 7.64224C4.98434 7.78539 5 7.91249 5 8H1C1 8.787 1.28804 9.54146 1.87329 10.1267L4.70171 7.29829ZM5 8C5 8.08751 4.98434 8.21461 4.92658 8.35776C4.8681 8.50267 4.78469 8.61874 4.70171 8.70171L1.87329 5.87329C1.28804 6.45854 1 7.213 1 8H5ZM4.70171 8.70171C4.61874 8.78469 4.50267 8.8681 4.35776 8.92658C4.21461 8.98434 4.08751 9 4 9V5C3.213 5 2.45854 5.28804 1.87329 5.87329L4.70171 8.70171ZM4 9C3.91249 9 3.78539 8.98434 3.64224 8.92658C3.49733 8.8681 3.38126 8.78469 3.29829 8.70171L6.12671 5.87329C5.54146 5.28804 4.787 5 4 5V9ZM3.29829 8.70171C3.21531 8.61874 3.1319 8.50267 3.07342 8.35776C3.01566 8.21461 3 8.08751 3 8H7C7 7.213 6.71196 6.45854 6.12671 5.87329L3.29829 8.70171ZM3 8C3 7.91249 3.01566 7.78539 3.07342 7.64224C3.1319 7.49733 3.21531 7.38126 3.29829 7.29829L6.12671 10.1267C6.71196 9.54146 7 8.787 7 8H3ZM3.29829 7.29829C3.38126 7.21531 3.49733 7.1319 3.64224 7.07342C3.78539 7.01566 3.91249 7 4 7V11C4.787 11 5.54146 10.712 6.12671 10.1267L3.29829 7.29829ZM4 11C4.08751 11 4.21461 11.0157 4.35776 11.0734C4.50267 11.1319 4.61874 11.2153 4.70171 11.2983L1.87329 14.1267C2.45854 14.712 3.213 15 4 15V11ZM4.70171 11.2983C4.78469 11.3813 4.8681 11.4973 4.92658 11.6422C4.98434 11.7854 5 11.9125 5 12H1C1 12.787 1.28804 13.5415 1.87329 14.1267L4.70171 11.2983ZM5 12C5 12.0875 4.98434 12.2146 4.92658 12.3578C4.8681 12.5027 4.78469 12.6187 4.70171 12.7017L1.87329 9.87329C1.28804 10.4585 1 11.213 1 12H5ZM4.70171 12.7017C4.61874 12.7847 4.50267 12.8681 4.35776 12.9266C4.21461 12.9843 4.08751 13 4 13V9C3.213 9 2.45854 9.28804 1.87329 9.87329L4.70171 12.7017ZM4 13C3.91249 13 3.78539 12.9843 3.64224 12.9266C3.49733 12.8681 3.38126 12.7847 3.29829 12.7017L6.12671 9.87329C5.54146 9.28804 4.787 9 4 9V13ZM3.29829 12.7017C3.21531 12.6187 3.1319 12.5027 3.07342 12.3578C3.01566 12.2146 3 12.0875 3 12H7C7 11.213 6.71196 10.4585 6.12671 9.87329L3.29829 12.7017ZM3 12C3 11.9125 3.01566 11.7854 3.07342 11.6422C3.1319 11.4973 3.21531 11.3813 3.29829 11.2983L6.12671 14.1267C6.71196 13.5415 7 12.787 7 12H3ZM3.29829 11.2983C3.38126 11.2153 3.49733 11.1319 3.64224 11.0734C3.78539 11.0157 3.91249 11 4 11V15C4.787 15 5.54146 14.712 6.12671 14.1267L3.29829 11.2983ZM4 15C4.08751 15 4.21461 15.0157 4.35776 15.0734C4.50267 15.1319 4.61874 15.2153 4.70171 15.2983L1.87329 18.1267C2.45854 18.712 3.213 19 4 19V15ZM4.70171 15.2983C4.78469 15.3813 4.8681 15.4973 4.92658 15.6422C4.98434 15.7854 5 15.9125 5 16H1C1 16.787 1.28803 17.5415 1.87329 18.1267L4.70171 15.2983ZM5 16C5 16.0875 4.98434 16.2146 4.92658 16.3578C4.8681 16.5027 4.78469 16.6187 4.70171 16.7017L1.87329 13.8733C1.28804 14.4585 1 15.213 1 16H5ZM4.70171 16.7017C4.61874 16.7847 4.50268 16.8681 4.35776 16.9266C4.21461 16.9843 4.08752 17 4 17V13C3.213 13 2.45854 13.288 1.87329 13.8733L4.70171 16.7017ZM4 17C3.91248 17 3.78539 16.9843 3.64224 16.9266C3.49732 16.8681 3.38126 16.7847 3.29829 16.7017L6.12671 13.8733C5.54146 13.288 4.787 13 4 13V17ZM3.29829 16.7017C3.21531 16.6187 3.1319 16.5027 3.07342 16.3578C3.01566 16.2146 3 16.0875 3 16H7C7 15.213 6.71196 14.4585 6.12671 13.8733L3.29829 16.7017ZM3 16C3 15.9125 3.01566 15.7854 3.07342 15.6422C3.1319 15.4973 3.21531 15.3813 3.29829 15.2983L6.12671 18.1267C6.71197 17.5415 7 16.787 7 16H3ZM3.29829 15.2983C3.38126 15.2153 3.49733 15.1319 3.64224 15.0734C3.78539 15.0157 3.91249 15 4 15V19C4.787 19 5.54146 18.712 6.12671 18.1267L3.29829 15.2983Z" fill="#49454F" mask="url(#path-1-inside-1_47_946)"/>
</svg>
