<svg width="153" height="19" viewBox="0 0 153 19" fill="none" xmlns="http://www.w3.org/2000/svg">
<path d="M12.6133 18H0.847656V1.19531H4.21094V14.6367H12.6133V18ZM30.25 9.66797C30.25 10.4648 30.1445 11.2344 29.9336 11.9766C29.7305 12.7109 29.4414 13.4023 29.0664 14.0508C28.6914 14.6914 28.2383 15.2773 27.707 15.8086C27.1758 16.3398 26.5898 16.7969 25.9492 17.1797C25.3086 17.5547 24.6172 17.8438 23.875 18.0469C23.1328 18.2578 22.3633 18.3633 21.5664 18.3633C20.7695 18.3633 20 18.2578 19.2578 18.0469C18.5234 17.8438 17.832 17.5547 17.1836 17.1797C16.543 16.7969 15.957 16.3398 15.4258 15.8086C14.8945 15.2773 14.4375 14.6914 14.0547 14.0508C13.6797 13.4023 13.3867 12.7109 13.1758 11.9766C12.9727 11.2344 12.8711 10.4648 12.8711 9.66797C12.8711 8.87109 12.9727 8.10156 13.1758 7.35938C13.3867 6.61719 13.6797 5.92578 14.0547 5.28516C14.4375 4.64453 14.8945 4.05859 15.4258 3.52734C15.957 2.99609 16.543 2.54297 17.1836 2.16797C17.832 1.79297 18.5234 1.50391 19.2578 1.30078C20 1.08984 20.7695 0.984375 21.5664 0.984375C22.3633 0.984375 23.1328 1.08984 23.875 1.30078C24.6172 1.50391 25.3086 1.79297 25.9492 2.16797C26.5898 2.54297 27.1758 2.99609 27.707 3.52734C28.2383 4.05859 28.6914 4.64453 29.0664 5.28516C29.4414 5.92578 29.7305 6.61719 29.9336 7.35938C30.1445 8.10156 30.25 8.87109 30.25 9.66797ZM26.9102 9.66797C26.9102 8.93359 26.7695 8.24219 26.4883 7.59375C26.207 6.9375 25.8242 6.37109 25.3398 5.89453C24.8633 5.41016 24.2969 5.02734 23.6406 4.74609C22.9922 4.46484 22.3008 4.32422 21.5664 4.32422C20.8242 4.32422 20.1289 4.46484 19.4805 4.74609C18.832 5.02734 18.2656 5.41016 17.7812 5.89453C17.2969 6.37109 16.9141 6.9375 16.6328 7.59375C16.3516 8.24219 16.2109 8.93359 16.2109 9.66797C16.2109 10.4023 16.3516 11.0938 16.6328 11.7422C16.9141 12.3828 17.2969 12.9453 17.7812 13.4297C18.2656 13.9141 18.832 14.2969 19.4805 14.5781C20.1289 14.8594 20.8242 15 21.5664 15C22.3008 15 22.9922 14.8594 23.6406 14.5781C24.2969 14.2969 24.8633 13.9141 25.3398 13.4297C25.8242 12.9453 26.207 12.3828 26.4883 11.7422C26.7695 11.0938 26.9102 10.4023 26.9102 9.66797ZM45.8828 16.2773C45.1016 16.9492 44.2266 17.4648 43.2578 17.8242C42.2891 18.1836 41.2852 18.3633 40.2461 18.3633C39.4492 18.3633 38.6797 18.2578 37.9375 18.0469C37.2031 17.8438 36.5117 17.5547 35.8633 17.1797C35.2227 16.7969 34.6367 16.3398 34.1055 15.8086C33.5742 15.2773 33.1172 14.6914 32.7344 14.0508C32.3594 13.4023 32.0664 12.7109 31.8555 11.9766C31.6523 11.2344 31.5508 10.4648 31.5508 9.66797C31.5508 8.87109 31.6523 8.10156 31.8555 7.35938C32.0664 6.61719 32.3594 5.92578 32.7344 5.28516C33.1172 4.63672 33.5742 4.04688 34.1055 3.51562C34.6367 2.98438 35.2227 2.53125 35.8633 2.15625C36.5117 1.77344 37.2031 1.48047 37.9375 1.27734C38.6797 1.06641 39.4492 0.960938 40.2461 0.960938C41.2852 0.960938 42.2891 1.14062 43.2578 1.5C44.2266 1.85156 45.1016 2.36719 45.8828 3.04688L44.1016 5.97656C43.6094 5.44531 43.0273 5.03906 42.3555 4.75781C41.6836 4.46875 40.9805 4.32422 40.2461 4.32422C39.5039 4.32422 38.8086 4.46484 38.1602 4.74609C37.5117 5.02734 36.9453 5.41016 36.4609 5.89453C35.9766 6.37109 35.5938 6.9375 35.3125 7.59375C35.0312 8.24219 34.8906 8.93359 34.8906 9.66797C34.8906 10.4023 35.0312 11.0938 35.3125 11.7422C35.5938 12.3828 35.9766 12.9453 36.4609 13.4297C36.9453 13.9141 37.5117 14.2969 38.1602 14.5781C38.8086 14.8594 39.5039 15 40.2461 15C40.9805 15 41.6836 14.8594 42.3555 14.5781C43.0273 14.2891 43.6094 13.8789 44.1016 13.3477L45.8828 16.2773ZM57.7305 11.2852V7.92188C57.7305 7.46094 57.6406 7.02734 57.4609 6.62109C57.2891 6.20703 57.0508 5.84766 56.7461 5.54297C56.4414 5.23828 56.082 5 55.668 4.82812C55.2617 4.64844 54.8281 4.55859 54.3672 4.55859C53.9062 4.55859 53.4688 4.64844 53.0547 4.82812C52.6484 5 52.293 5.23828 51.9883 5.54297C51.6836 5.84766 51.4414 6.20703 51.2617 6.62109C51.0898 7.02734 51.0039 7.46094 51.0039 7.92188V11.2852H57.7305ZM61.0938 18H57.7305V14.6367H51.0039V18H47.6523V7.92188C47.6523 6.99219 47.8281 6.12109 48.1797 5.30859C48.5312 4.48828 49.0078 3.77344 49.6094 3.16406C50.2188 2.55469 50.9297 2.07422 51.7422 1.72266C52.5625 1.37109 53.4375 1.19531 54.3672 1.19531C55.2969 1.19531 56.168 1.37109 56.9805 1.72266C57.8008 2.07422 58.5156 2.55469 59.125 3.16406C59.7344 3.77344 60.2148 4.48828 60.5664 5.30859C60.918 6.12109 61.0938 6.99219 61.0938 7.92188V18ZM67.375 4.55859V11.2852H70.7383C71.1992 11.2852 71.6328 11.1992 72.0391 11.0273C72.4453 10.8477 72.8008 10.6055 73.1055 10.3008C73.4102 9.99609 73.6484 9.64062 73.8203 9.23438C74 8.82031 74.0898 8.38281 74.0898 7.92188C74.0898 7.46094 74 7.02734 73.8203 6.62109C73.6484 6.20703 73.4102 5.84766 73.1055 5.54297C72.8008 5.23828 72.4453 5 72.0391 4.82812C71.6328 4.64844 71.1992 4.55859 70.7383 4.55859H67.375ZM67.375 18H64.0117V1.19531H70.7383C71.3555 1.19531 71.9492 1.27734 72.5195 1.44141C73.0898 1.59766 73.6211 1.82422 74.1133 2.12109C74.6133 2.41016 75.0664 2.76172 75.4727 3.17578C75.8867 3.58203 76.2383 4.03516 76.5273 4.53516C76.8242 5.03516 77.0508 5.57031 77.207 6.14062C77.3711 6.71094 77.4531 7.30469 77.4531 7.92188C77.4531 8.5 77.3789 9.0625 77.2305 9.60938C77.0898 10.1562 76.8828 10.6758 76.6094 11.168C76.3438 11.6602 76.0156 12.1133 75.625 12.5273C75.2344 12.9414 74.7969 13.3008 74.3125 13.6055L76.1758 18H72.6016L71.1367 14.6133L67.375 14.6367V18Z" fill="#8142FF"/>
<path d="M89.7578 18H86.3945V1.19531H98.1602V4.55859H89.7578V7.92188H94.7969V11.2852H89.7578V18ZM103.258 18H99.8945V1.19531H103.258V18ZM118.152 18H106.387V1.19531H109.75V14.6367H118.152V18ZM136.586 18H133.234V6C133.234 5.76562 133.188 5.54688 133.094 5.34375C133.008 5.14062 132.887 4.96484 132.73 4.81641C132.582 4.66016 132.406 4.53906 132.203 4.45312C132 4.36719 131.781 4.32422 131.547 4.32422C131.312 4.32422 131.094 4.36719 130.891 4.45312C130.688 4.53906 130.508 4.66016 130.352 4.81641C130.203 4.96484 130.086 5.14062 130 5.34375C129.914 5.54688 129.871 5.76562 129.871 6V18H126.508V6C126.508 5.76562 126.465 5.54688 126.379 5.34375C126.293 5.14062 126.172 4.96484 126.016 4.81641C125.867 4.66016 125.691 4.53906 125.488 4.45312C125.285 4.36719 125.066 4.32422 124.832 4.32422C124.598 4.32422 124.379 4.36719 124.176 4.45312C123.973 4.53906 123.793 4.66016 123.637 4.81641C123.488 4.96484 123.371 5.14062 123.285 5.34375C123.199 5.54688 123.156 5.76562 123.156 6V18H119.793V6C119.793 5.30469 119.922 4.65234 120.18 4.04297C120.445 3.42578 120.805 2.89062 121.258 2.4375C121.719 1.97656 122.254 1.61719 122.863 1.35938C123.48 1.09375 124.137 0.960938 124.832 0.960938C125.457 0.960938 126.059 1.07422 126.637 1.30078C127.215 1.51953 127.734 1.83984 128.195 2.26172C128.656 1.83984 129.172 1.51953 129.742 1.30078C130.32 1.07422 130.922 0.960938 131.547 0.960938C132.242 0.960938 132.895 1.09375 133.504 1.35938C134.121 1.61719 134.656 1.97656 135.109 2.4375C135.57 2.89062 135.93 3.42578 136.188 4.04297C136.453 4.65234 136.586 5.30469 136.586 6V18ZM138.613 6.23438C138.613 5.53906 138.746 4.88672 139.012 4.27734C139.277 3.66797 139.637 3.13672 140.09 2.68359C140.551 2.22266 141.086 1.85938 141.695 1.59375C142.305 1.32812 142.957 1.19531 143.652 1.19531H151.363V4.55859H143.652C143.418 4.55859 143.199 4.60156 142.996 4.6875C142.793 4.77344 142.613 4.89453 142.457 5.05078C142.309 5.19922 142.191 5.375 142.105 5.57812C142.02 5.78125 141.977 6 141.977 6.23438C141.977 6.46875 142.02 6.69141 142.105 6.90234C142.191 7.10547 142.309 7.28516 142.457 7.44141C142.613 7.58984 142.793 7.70703 142.996 7.79297C143.199 7.87891 143.418 7.92188 143.652 7.92188H147.016C147.711 7.92188 148.363 8.05469 148.973 8.32031C149.59 8.57812 150.125 8.9375 150.578 9.39844C151.039 9.85156 151.398 10.3867 151.656 11.0039C151.922 11.6133 152.055 12.2656 152.055 12.9609C152.055 13.6562 151.922 14.3086 151.656 14.918C151.398 15.5273 151.039 16.0625 150.578 16.5234C150.125 16.9766 149.59 17.3359 148.973 17.6016C148.363 17.8672 147.711 18 147.016 18H139.551V14.6367H147.016C147.25 14.6367 147.469 14.5938 147.672 14.5078C147.875 14.4219 148.051 14.3047 148.199 14.1562C148.355 14 148.477 13.8203 148.562 13.6172C148.648 13.4141 148.691 13.1953 148.691 12.9609C148.691 12.7266 148.648 12.5078 148.562 12.3047C148.477 12.1016 148.355 11.9258 148.199 11.7773C148.051 11.6211 147.875 11.5 147.672 11.4141C147.469 11.3281 147.25 11.2852 147.016 11.2852H143.652C142.957 11.2852 142.305 11.1523 141.695 10.8867C141.086 10.6211 140.551 10.2617 140.09 9.80859C139.637 9.34766 139.277 8.8125 139.012 8.20312C138.746 7.58594 138.613 6.92969 138.613 6.23438Z" fill="#49454F"/>
</svg>
