<svg width="276" height="104" viewBox="0 0 276 104" fill="none" xmlns="http://www.w3.org/2000/svg">
<path d="M48.873 59H8.67383V1.58398H20.165V47.5088H48.873V59ZM109.132 30.5322C109.132 33.2549 108.771 35.8841 108.051 38.4199C107.357 40.929 106.369 43.2913 105.088 45.5068C103.807 47.6956 102.258 49.6976 100.443 51.5127C98.6283 53.3278 96.6263 54.8893 94.4375 56.1973C92.2487 57.4785 89.8864 58.4661 87.3506 59.1602C84.8148 59.8809 82.1855 60.2412 79.4629 60.2412C76.7402 60.2412 74.111 59.8809 71.5752 59.1602C69.0661 58.4661 66.7038 57.4785 64.4883 56.1973C62.2995 54.8893 60.2975 53.3278 58.4824 51.5127C56.6673 49.6976 55.1058 47.6956 53.7979 45.5068C52.5166 43.2913 51.5156 40.929 50.7949 38.4199C50.1009 35.8841 49.7539 33.2549 49.7539 30.5322C49.7539 27.8096 50.1009 25.1803 50.7949 22.6445C51.5156 20.1087 52.5166 17.7464 53.7979 15.5576C55.1058 13.3688 56.6673 11.3669 58.4824 9.55176C60.2975 7.73665 62.2995 6.18848 64.4883 4.90723C66.7038 3.62598 69.0661 2.63835 71.5752 1.94434C74.111 1.22363 76.7402 0.863281 79.4629 0.863281C82.1855 0.863281 84.8148 1.22363 87.3506 1.94434C89.8864 2.63835 92.2487 3.62598 94.4375 4.90723C96.6263 6.18848 98.6283 7.73665 100.443 9.55176C102.258 11.3669 103.807 13.3688 105.088 15.5576C106.369 17.7464 107.357 20.1087 108.051 22.6445C108.771 25.1803 109.132 27.8096 109.132 30.5322ZM97.7207 30.5322C97.7207 28.0231 97.2402 25.6608 96.2793 23.4453C95.3184 21.2031 94.0104 19.2679 92.3555 17.6396C90.7272 15.9847 88.792 14.6768 86.5498 13.7158C84.3343 12.7549 81.972 12.2744 79.4629 12.2744C76.9271 12.2744 74.5514 12.7549 72.3359 13.7158C70.1204 14.6768 68.1852 15.9847 66.5303 17.6396C64.8753 19.2679 63.5674 21.2031 62.6064 23.4453C61.6455 25.6608 61.165 28.0231 61.165 30.5322C61.165 33.0413 61.6455 35.4036 62.6064 37.6191C63.5674 39.8079 64.8753 41.7298 66.5303 43.3848C68.1852 45.0397 70.1204 46.3477 72.3359 47.3086C74.5514 48.2695 76.9271 48.75 79.4629 48.75C81.972 48.75 84.3343 48.2695 86.5498 47.3086C88.792 46.3477 90.7272 45.0397 92.3555 43.3848C94.0104 41.7298 95.3184 39.8079 96.2793 37.6191C97.2402 35.4036 97.7207 33.0413 97.7207 30.5322ZM162.544 53.1143C159.875 55.4098 156.885 57.1715 153.575 58.3994C150.265 59.6273 146.835 60.2412 143.285 60.2412C140.562 60.2412 137.933 59.8809 135.397 59.1602C132.888 58.4661 130.526 57.4785 128.311 56.1973C126.122 54.8893 124.12 53.3278 122.305 51.5127C120.49 49.6976 118.928 47.6956 117.62 45.5068C116.339 43.2913 115.338 40.929 114.617 38.4199C113.923 35.8841 113.576 33.2549 113.576 30.5322C113.576 27.8096 113.923 25.1803 114.617 22.6445C115.338 20.1087 116.339 17.7464 117.62 15.5576C118.928 13.3421 120.49 11.3268 122.305 9.51172C124.12 7.69661 126.122 6.14844 128.311 4.86719C130.526 3.55924 132.888 2.55827 135.397 1.86426C137.933 1.14355 140.562 0.783203 143.285 0.783203C146.835 0.783203 150.265 1.39714 153.575 2.625C156.885 3.82617 159.875 5.58789 162.544 7.91016L156.458 17.9199C154.776 16.1048 152.788 14.7168 150.492 13.7559C148.197 12.7682 145.794 12.2744 143.285 12.2744C140.749 12.2744 138.374 12.7549 136.158 13.7158C133.943 14.6768 132.007 15.9847 130.353 17.6396C128.698 19.2679 127.39 21.2031 126.429 23.4453C125.468 25.6608 124.987 28.0231 124.987 30.5322C124.987 33.0413 125.468 35.4036 126.429 37.6191C127.39 39.8079 128.698 41.7298 130.353 43.3848C132.007 45.0397 133.943 46.3477 136.158 47.3086C138.374 48.2695 140.749 48.75 143.285 48.75C145.794 48.75 148.197 48.2695 150.492 47.3086C152.788 46.321 154.776 44.9196 156.458 43.1045L162.544 53.1143ZM203.023 36.0576V24.5664C203.023 22.9915 202.716 21.5101 202.103 20.1221C201.515 18.7074 200.701 17.4795 199.66 16.4385C198.619 15.3975 197.391 14.5833 195.977 13.9961C194.589 13.3822 193.107 13.0752 191.532 13.0752C189.957 13.0752 188.463 13.3822 187.048 13.9961C185.66 14.5833 184.445 15.3975 183.404 16.4385C182.363 17.4795 181.536 18.7074 180.922 20.1221C180.335 21.5101 180.041 22.9915 180.041 24.5664V36.0576H203.023ZM214.515 59H203.023V47.5088H180.041V59H168.59V24.5664C168.59 21.39 169.19 18.4137 170.392 15.6377C171.593 12.835 173.221 10.3926 175.276 8.31055C177.358 6.22852 179.787 4.58691 182.563 3.38574C185.366 2.18457 188.356 1.58398 191.532 1.58398C194.709 1.58398 197.685 2.18457 200.461 3.38574C203.264 4.58691 205.706 6.22852 207.788 8.31055C209.87 10.3926 211.512 12.835 212.713 15.6377C213.914 18.4137 214.515 21.39 214.515 24.5664V59ZM235.976 13.0752V36.0576H247.467C249.042 36.0576 250.523 35.764 251.911 35.1768C253.299 34.5628 254.514 33.7354 255.555 32.6943C256.596 31.6533 257.41 30.4388 257.997 29.0508C258.611 27.6361 258.918 26.1413 258.918 24.5664C258.918 22.9915 258.611 21.5101 257.997 20.1221C257.41 18.7074 256.596 17.4795 255.555 16.4385C254.514 15.3975 253.299 14.5833 251.911 13.9961C250.523 13.3822 249.042 13.0752 247.467 13.0752H235.976ZM235.976 59H224.484V1.58398H247.467C249.576 1.58398 251.604 1.86426 253.553 2.4248C255.501 2.95866 257.316 3.73275 258.998 4.74707C260.706 5.7347 262.255 6.93587 263.643 8.35059C265.057 9.73861 266.258 11.2868 267.246 12.9951C268.26 14.7035 269.035 16.5319 269.568 18.4805C270.129 20.429 270.409 22.4577 270.409 24.5664C270.409 26.5417 270.156 28.4635 269.648 30.332C269.168 32.2005 268.461 33.9756 267.526 35.6572C266.619 37.3389 265.498 38.887 264.163 40.3018C262.828 41.7165 261.334 42.9443 259.679 43.9854L266.045 59H253.833L248.828 47.4287L235.976 47.5088V59Z" fill="#8142FF"/>
<path d="M160.056 97.4167H154.17V68.0085H174.76V73.8943H160.056V79.78H168.874V85.6658H160.056V97.4167ZM183.681 97.4167H177.795V68.0085H183.681V97.4167ZM209.746 97.4167H189.157V68.0085H195.042V91.531H209.746V97.4167ZM242.005 97.4167H236.14V76.4167C236.14 76.0066 236.058 75.6238 235.894 75.2683C235.744 74.9128 235.532 74.6052 235.258 74.3455C234.998 74.072 234.691 73.8601 234.335 73.7097C233.98 73.5593 233.597 73.4841 233.187 73.4841C232.777 73.4841 232.394 73.5593 232.038 73.7097C231.683 73.8601 231.369 74.072 231.095 74.3455C230.835 74.6052 230.63 74.9128 230.48 75.2683C230.33 75.6238 230.254 76.0066 230.254 76.4167V97.4167H224.369V76.4167C224.369 76.0066 224.293 75.6238 224.143 75.2683C223.993 74.9128 223.781 74.6052 223.507 74.3455C223.247 74.072 222.94 73.8601 222.584 73.7097C222.229 73.5593 221.846 73.4841 221.436 73.4841C221.026 73.4841 220.643 73.5593 220.288 73.7097C219.932 73.8601 219.618 74.072 219.344 74.3455C219.084 74.6052 218.879 74.9128 218.729 75.2683C218.579 75.6238 218.503 76.0066 218.503 76.4167V97.4167H212.618V76.4167C212.618 75.2 212.843 74.0583 213.294 72.9919C213.759 71.9119 214.388 70.9753 215.181 70.1824C215.988 69.3757 216.924 68.7468 217.991 68.2957C219.071 67.8308 220.219 67.5984 221.436 67.5984C222.53 67.5984 223.582 67.7966 224.594 68.1931C225.606 68.5759 226.515 69.1365 227.322 69.8748C228.128 69.1365 229.031 68.5759 230.029 68.1931C231.04 67.7966 232.093 67.5984 233.187 67.5984C234.404 67.5984 235.545 67.8308 236.612 68.2957C237.692 68.7468 238.628 69.3757 239.421 70.1824C240.228 70.9753 240.857 71.9119 241.308 72.9919C241.773 74.0583 242.005 75.2 242.005 76.4167V97.4167ZM245.553 76.8269C245.553 75.6101 245.786 74.4685 246.25 73.4021C246.715 72.3357 247.344 71.406 248.137 70.613C248.944 69.8064 249.88 69.1707 250.947 68.7058C252.013 68.241 253.155 68.0085 254.371 68.0085H267.866V73.8943H254.371C253.961 73.8943 253.579 73.9695 253.223 74.1199C252.868 74.2703 252.553 74.4822 252.28 74.7556C252.02 75.0154 251.815 75.323 251.664 75.6785C251.514 76.0339 251.439 76.4167 251.439 76.8269C251.439 77.2371 251.514 77.6267 251.664 77.9958C251.815 78.3513 252.02 78.6658 252.28 78.9392C252.553 79.199 252.868 79.4041 253.223 79.5544C253.579 79.7048 253.961 79.78 254.371 79.78H260.257C261.474 79.78 262.616 80.0125 263.682 80.4773C264.762 80.9285 265.699 81.5574 266.492 82.364C267.298 83.157 267.927 84.0935 268.378 85.1736C268.843 86.24 269.076 87.3816 269.076 88.5984C269.076 89.8152 268.843 90.9568 268.378 92.0232C267.927 93.0896 267.298 94.0261 266.492 94.8328C265.699 95.6257 264.762 96.2546 263.682 96.7195C262.616 97.1843 261.474 97.4167 260.257 97.4167H247.194V91.531H260.257C260.667 91.531 261.05 91.4558 261.406 91.3054C261.761 91.155 262.069 90.95 262.329 90.6902C262.602 90.4167 262.814 90.1023 262.964 89.7468C263.115 89.3914 263.19 89.0085 263.19 88.5984C263.19 88.1882 263.115 87.8054 262.964 87.45C262.814 87.0945 262.602 86.7869 262.329 86.5271C262.069 86.2537 261.761 86.0417 261.406 85.8914C261.05 85.741 260.667 85.6658 260.257 85.6658H254.371C253.155 85.6658 252.013 85.4333 250.947 84.9685C249.88 84.5037 248.944 83.8748 248.137 83.0818C247.344 82.2751 246.715 81.3386 246.25 80.2722C245.786 79.1921 245.553 78.0437 245.553 76.8269Z" fill="#49454F"/>
</svg>
